<svg xmlns="http://www.w3.org/2000/svg" xmlns:xlink="http://www.w3.org/1999/xlink" enable-background="new 0 0 6000 4000" viewBox="0 0 6000 4000" id="google-trends"><path fill="#6ea3d3" d="M1310.8 3686.5c263.9 48.4 518.9 52.8 774-26.4 127.5-39.6 255.1-39.6 387-22 158.3 22 307.8 88 466.1 105.5 360.6 39.6 712.4-13.2 1059.8-123.1 88-26.4 180.3-22 268.3-8.8 211.1 26.4 431 61.6 633.3-4.4 67.6-23.2 129.1-60.7 190.9-97.2-129.6-171.9-1184.4-119.4-1513.6-57.1-375.5 71-1284.7 171.9-1408-112-123.2-283.9-741.6 54.6-1196.9 102.4-275.6 28.9-558.6 144.8-373.3 235.5 2.9-.4 5.8-.8 8.8-1.1 233.1-13.3 466.1-35.3 703.6 8.7"></path><path fill="#c5dcef" d="M4899.3 3607.3c-202.3 66-422.2 30.8-633.3 4.4-88-13.2-180.3-17.6-268.3 8.8-347.4 109.9-699.2 162.7-1059.8 123.1-158.3-17.6-307.8-83.6-466.1-105.5-131.9-17.6-259.5-17.6-387 22-255.1 79.2-510.1 74.8-774 26.4-237.5-44-470.5-22-703.6-8.8-3 .3-5.9.7-8.8 1.1 120.8 59.1 440.9 107.5 1092.3 114 1650.1 16.4 3156.6 153.9 3394.9-196.5 22.8-33.6 22.8-62.1 4.6-86.2-61.8 36.5-123.3 74-190.9 97.2"></path><defs><path id="a" d="M5032.9 1093.1c12 41-27.3 240.5-94.2 275.4-66.9 34.9-97.5 94.5-87.6 140.8 9.9 46.3 24 61.3 24 61.3s-45.7-37-90.1 34.7c-44.4 71.7 77.8 99.8 13.8 183.6-63.9 83.8-176.9 7.3-157.9 160.2 19 152.9 288.1 156.1 401-10.4 112.8-166.4 246.7-320.5 243.1-430.6-2-60.7-30-56.7-57.6-52.8-22.5 3.2-44.7 6.4-52.4-25.4-17.1-70.8 24.9-339.6-67.6-410.9-22.5-17.3-39.1-24.3-51.3-24.3-38 0-32.3 67.3-23.2 98.4"></path></defs><clipPath id="b"><use overflow="visible" xlink:href="#a"></use></clipPath><linearGradient id="c" x1="1822.508" x2="1827.289" y1="2780.421" y2="2780.421" gradientTransform="scale(-196.083 196.083) rotate(17.412 9952.946 -4648.432)" gradientUnits="userSpaceOnUse"><stop offset="0" stop-color="#b6f2f0"></stop><stop offset=".304" stop-color="#b6f2f0"></stop><stop offset=".406" stop-color="#90dbd9"></stop><stop offset=".522" stop-color="#6dc6c4"></stop><stop offset=".639" stop-color="#52b5b4"></stop><stop offset=".757" stop-color="#3ea9a8"></stop><stop offset=".876" stop-color="#33a2a1"></stop><stop offset="1" stop-color="#2fa09f"></stop></linearGradient><path fill="url(#c)" d="m5605.6 2005.7-924 289.8-376.8-1201.4 924-289.8z" clip-path="url(#b)"></path><g opacity=".38"><defs><path id="d" d="M4464.6 819.5H5459v1419.8h-994.4z"></path></defs><clipPath id="e"><use overflow="visible" xlink:href="#d"></use></clipPath><g clip-path="url(#e)"><defs><path id="f" d="M4464.6 819.5H5459v1419.8h-994.4z"></path></defs><clipPath id="g"><use overflow="visible" xlink:href="#f"></use></clipPath></g></g><defs><path id="h" d="M5032.9 1093.1c12 41-27.3 240.5-94.2 275.4-66.9 34.9-97.5 94.5-87.6 140.8 9.9 46.3 24 61.3 24 61.3s-45.7-37-90.1 34.7c-44.4 71.7 77.8 99.8 13.8 183.6-63.9 83.8-176.9 7.3-157.9 160.2 19 152.9 288.1 156.1 401-10.4 112.8-166.4 246.7-320.5 243.1-430.6-2-60.7-30-56.7-57.6-52.8-22.5 3.2-44.7 6.4-52.4-25.4-17.1-70.8 24.9-339.6-67.6-410.9-22.5-17.3-39.1-24.3-51.3-24.3-38 0-32.3 67.3-23.2 98.4"></path></defs><clipPath id="i"><use overflow="visible" xlink:href="#h"></use></clipPath><path fill="#2d65af" d="M4773.4 1960.4c57.7-3.4 96.2-55.6 124-100.5 30.6-49.2 57.7-100.7 81.6-153.5 48.3-106.9 83.4-219.7 105.2-335 12.5-66.1 20.7-132.9 24.5-200.1.2-3.2-4.8-3.2-5 0-6.6 116.8-26.5 232.8-59.6 345-32.2 109.3-76.9 215.1-134.4 313.5-16.5 28.3-33.5 57-55.8 81.3-21.1 22.9-48.5 42.4-80.5 44.3-3.2.2-3.2 5.2 0 5" clip-path="url(#i)"></path><path fill="#2d65af" d="M5124.6 1530.1c-17.5 19.3-34.1 39.4-49.7 60.1-7.9 10.5-15.2 21.3-23 31.9-2.3 3.1-4.6 5.7-8.6 6.3-3.1.5-6.5.1-9.7.1h-22.4c-3.2 0-3.2 5 0 5h22.4c5.2 0 11.2.9 15.9-1.9 4.5-2.6 7.3-7.8 10.1-12 4.3-6.2 8.7-12.3 13.1-18.3 17.3-23.5 35.8-46.1 55.3-67.7 2.3-2.3-1.3-5.9-3.4-3.5M4971.6 1717.3c-.8-11.9-5.5-23.3-8.4-34.8-3.2-12.8-5.8-25.7-7.8-38.7-4.1-26.7-5.5-53.8-4.5-80.8.1-3.2-4.9-3.2-5 0-1 25.9.3 51.9 4 77.6 1.8 12.7 4.2 25.3 7.2 37.7 3 12.8 8.6 25.8 9.6 38.9.1 3.3 5.1 3.4 4.9.1M5050.8 1725.9c-21.3 12-41.4 26.1-60 42.1-4.7 4-9.3 8.2-13.8 12.4-4.4 4.2-8.7 9-14.1 12-9.9 5.4-21.9 2.5-31.6 8.7-2.7 1.7-.2 6.1 2.5 4.3 9.3-5.9 21-3.3 30.7-8.2 10.1-5.1 18-15.3 26.5-22.7 19.2-16.8 40-31.6 62.3-44.2 2.8-1.7.3-6-2.5-4.4M4876.9 1852c-.9-43.8 7.5-86.8 16.1-129.6.6-3.2-4.2-4.5-4.8-1.3-8.6 43.2-17.1 86.7-16.3 130.9 0 3.2 5.1 3.2 5 0M4984.5 1907.3c-16.4 5.5-32.3 12.4-47.5 20.8-14.9 8.2-29.7 17.4-46.7 20.1-3.2.5-1.8 5.3 1.3 4.8 16.3-2.6 30.7-11.1 45-19 15.8-8.8 32.1-16.2 49.2-21.9 3.1-.9 1.8-5.8-1.3-4.8M5050.8 1443.9c-6-2.7-7.7-12.4-9.5-18.1-2.3-6.9-4.3-13.8-6-20.8-3.7-14.7-6.3-29.7-7.9-44.8-.3-3.2-5.3-3.2-5 0 1.7 16.6 4.6 33.1 8.8 49.2 2.1 8 4.5 16 7.3 23.8 2 5.6 3.9 12.4 9.8 15 2.9 1.4 5.5-3 2.5-4.3" clip-path="url(#i)"></path><path fill="#80dbda" d="M5185.4 931.5c4.8-20.8-10-86.5 10.3-95.7 15.6-7.1 26.7 15.8 32.2 29.3 36.7 69.7-57.4 140.6-42.5 66.4"></path><defs><path id="j" d="M1247 1092.6c-57.4 55.4-8.5 234.6-14.8 284-2.8 22.1-18.1 21.7-33.6 21.2-19-.6-38.4-1.1-35.1 40.2 5.9 75-9.3 214.3 79.9 318.6 89.2 104.4 389.2 37 390.5-68.2 1.3-105.2-69.5-44.7-119.3-96.7-49.7-52.1 31-80.3-4.5-125.6s-63.8-16.7-63.8-16.7 8.4-11.3 11.6-43.4c3.2-32.2-22.1-70.3-70.1-88.9-48-18.6-12.6-142.9-19.1-171.4-7.5-32.7-37.7-74.7-75.5-74.7-14.6 0-30.3 6.2-46.2 21.6"></path></defs><clipPath id="k"><use overflow="visible" xlink:href="#j"></use></clipPath><linearGradient id="l" x1="1822.881" x2="1827.661" y1="2775.431" y2="2775.431" gradientTransform="scale(216.0159 -216.0159) rotate(-61.738 -1411.163 2906.039)" gradientUnits="userSpaceOnUse"><stop offset="0" stop-color="#b6f2f0"></stop><stop offset=".13" stop-color="#b6f2f0"></stop><stop offset=".258" stop-color="#90dbd9"></stop><stop offset=".402" stop-color="#6dc6c4"></stop><stop offset=".548" stop-color="#52b5b4"></stop><stop offset=".696" stop-color="#3ea9a8"></stop><stop offset=".845" stop-color="#33a2a1"></stop><stop offset="1" stop-color="#2fa09f"></stop></linearGradient><path fill="url(#l)" d="m1527.4 870.4 437.3 813.5-702.7 377.7-437.3-813.5z" clip-path="url(#k)"></path><g opacity=".38"><defs><path id="m" d="M989.2 896h817.5v1085.2H989.2z"></path></defs><clipPath id="n"><use overflow="visible" xlink:href="#m"></use></clipPath><g clip-path="url(#n)"><defs><path id="o" d="M989.2 896h817.5v1085.2H989.2z"></path></defs><clipPath id="p"><use overflow="visible" xlink:href="#o"></use></clipPath></g></g><defs><path id="q" d="M1247 1092.6c-57.4 55.4-8.5 234.6-14.8 284-2.8 22.1-18.1 21.7-33.6 21.2-19-.6-38.4-1.1-35.1 40.2 5.9 75-9.3 214.3 79.9 318.6 89.2 104.4 389.2 37 390.5-68.2 1.3-105.2-69.5-44.7-119.3-96.7-49.7-52.1 31-80.3-4.5-125.6s-63.8-16.7-63.8-16.7 8.4-11.3 11.6-43.4c3.2-32.2-22.1-70.3-70.1-88.9-48-18.6 9.4-135.3 4-172-3.2-21.7-51-71.6-98.9-71.6-15.8-.1-31.7 5.4-45.9 19.1"></path></defs><clipPath id="r"><use overflow="visible" xlink:href="#q"></use></clipPath><path fill="#2d65af" d="M1544.6 1702.8c-43.3 2-74.2-37.8-97.6-68.8-22.9-30.2-43.8-61.9-62.9-94.6-39.2-67.6-70.2-139.9-92.9-214.7-12.8-42.4-22.9-85.6-30.3-129.2-.4-2.2-3.7-1.3-3.3.9 13.5 79.6 36.1 157.7 67.5 232.1 30.7 72.6 69.7 141.8 117.1 204.9 24.6 32.6 56.7 74.9 102.4 72.9 2.2-.2 2.2-3.6 0-3.5" clip-path="url(#r)"></path><path fill="#2d65af" d="M1271.7 1443.4c14.6 12.9 28.5 26.4 41.7 40.7 3.3 3.5 6.5 7.1 9.8 10.8 2.6 2.9 5.1 6.7 8.5 8.7 3.5 2 7.4 1.1 11.2.7 5.2-.6 10.4-1.2 15.7-1.8 2.2-.2 2.2-3.7 0-3.4-4.7.5-9.3 1.1-14 1.6-2.2.2-4.4.6-6.5.7-3.1.1-5.2-.8-7.3-3.1-6.2-6.5-12-13.5-18.2-20.1-12.2-13-25.1-25.4-38.4-37.2-1.7-1.5-4.2.9-2.5 2.4M1395.4 1556.1c-.3-8.8 2.3-17.8 3.4-26.5 1.1-8.8 1.8-17.6 2.1-26.5.6-18-.6-35.9-3.2-53.7-.3-2.2-3.6-1.2-3.3.9 2.7 18.1 3.8 36.5 3 54.9-.4 9.4-1.2 18.7-2.5 28-1.1 7.6-3.2 15.2-2.9 22.9 0 2.2 3.4 2.2 3.4 0M1337.3 1571.1c15.4 6.5 30.1 14.6 44 24.1 6.7 4.6 13.1 11 20.6 14.3 7.1 3.1 15.2.2 22.2 3.6 2 .9 3.7-2 1.7-3-6.9-3.3-14.3-.9-21.3-3.2-4.2-1.4-7.7-4.5-11.2-7.2-3.4-2.6-6.9-5.1-10.4-7.5-13.8-9.5-28.5-17.5-44-24.1-1.9-.8-3.7 2.1-1.6 3M1469.8 1640.3c-2.8-30.1-11.8-59-20.9-87.6-.7-2.1-4-1.2-3.3.9 9 28.3 18 56.9 20.8 86.7.2 2.1 3.6 2.2 3.4 0M1396.8 1689.5c12.1 2.6 23.8 6.4 35.2 11.1 10.4 4.3 20.8 9 32.3 9.5 2.2.1 2.2-3.3 0-3.4-11.5-.6-22-5.5-32.5-9.9-11-4.6-22.4-8.2-34.1-10.7-2.1-.4-3 2.9-.9 3.4M1319.4 1379.6c3.5-2.1 4.5-6.1 5.4-9.8 1.4-5.7 2.5-11.6 3.3-17.4 1.7-11.4 2.5-22.9 2.4-34.4 0-2.2-3.4-2.2-3.4 0 .1 10.3-.5 20.6-1.9 30.8-.7 5-1.5 10-2.6 15-.8 3.8-1.2 10.6-4.9 12.8-2 1.1-.2 4.1 1.7 3" clip-path="url(#r)"></path><path fill="#80dbda" d="M1269.2 961.7c-6.1-14.2-2.5-60.5-19-66-12.7-4.2-18.4 12.2-21 21.8-19.7 50.1 60 95 40 44.2"></path><path fill="#3784d1" d="M1424.4 845.8s-27.2 1397.9 182.9 1480.6c196.2 77.3 2829.8 41.6 2923.1 42.8 93.3 1.2 176-61.8 206.2-176.8 47.5-180.4 104.6-1346.6 104.6-1346.6s31.5-116.6-198.5-99.1c-229.9 17.5-3113.8-16.2-3113.8-16.2s-102.4 22.4-104.5 115.3"></path><path fill="#75afe8" d="M1465 805.1s-46.6 1490 163.3 1510.3c209.9 20.3 2849.5 11.9 2942.7 13.1 93.3 1.2 176-61.8 206.2-176.8 47.5-180.4 104.6-1346.6 104.6-1346.6s31.5-116.6-198.5-99.1c-229.9 17.5-3109 23.3-3109 23.3s-107.1-17.1-109.3 75.8"></path><path fill="#c5dcef" d="M1574.7 893.5s-43.7 1305 153 1322.8c196.7 17.8 2844.7 11.3 2844.7 11.3s62.2-.7 90.5-101.4c44.5-158 113.1-1232.7 113.1-1232.7s29.5-102.1-186-86.8c-215.4 15.3-2912.9 20.4-2912.9 20.4s-100.4-15-102.4 66.4"></path><path fill="#c5dcef" d="M4498.8 2146v-727.2l-182.4 195.6-144.6-270.8-136.1 370.7-218.4-123.2-131.6 96.6-182.4-63.4-77.1 96.9-89.8-310.6-237.7 260.8-135.3-211.2-133.2 100.7-152.4-612.2s-154.3 498.1-154.3 507.2c0 9.1-119.8-240.9-119.8-240.9l-94.4 861.9h-482v69.1h2671.5z"></path><path fill="none" stroke="#9696ed" stroke-miterlimit="10" stroke-width="1.801" d="m2309.3 2076.9 94.4-861.9s119.8 250 119.8 240.9c0-9.1 154.3-507.2 154.3-507.2l152.4 612.2 133.2-100.7 135.3 211.2 237.7-260.8 89.8 310.6 77.1-96.9 182.4 63.4 131.6-96.6 218.4 123.2 136.1-370.7 144.6 270.8 182.4-195.6V2146"></path><path fill="#b460d8" d="M2434.9 1216.4c0 13.5-14.9 24.5-33.4 24.5-18.4 0-33.4-11-33.4-24.5s14.9-24.5 33.4-24.5 33.4 10.9 33.4 24.5M2560 1437c4.9 12.6-5.1 28.2-22.3 34.9-17.2 6.7-35.1 1.8-39.9-10.8-4.9-12.6 5.1-28.2 22.3-34.9 17.1-6.6 35-1.8 39.9 10.8M2706.4 936.7c4.9 12.6-5.1 28.2-22.3 34.9-17.2 6.6-35.1 1.8-39.9-10.8-4.9-12.6 5.1-28.2 22.3-34.9 17.2-6.7 35.1-1.8 39.9 10.8M2857.9 1558.7c5.5 14.2 4.5 22.6-12.6 29.2-17.2 6.7-30.3-1.8-35.8-16-5.5-14.2-1.4-28.9 15.8-35.6 17.1-6.6 27.1 8.2 32.6 22.4M2987.2 1454.3c5.5 14.2 4.5 22.6-12.6 29.2-17.2 6.6-30.3-1.8-35.8-16-5.5-14.2-1.4-28.9 15.8-35.6 17.2-6.6 27.1 8.2 32.6 22.4M3129.5 1670.9c5.5 14.2 4.5 22.6-12.6 29.2-17.2 6.7-30.3-1.8-35.8-16-5.5-14.2-1.4-28.9 15.8-35.6 17.2-6.6 27.1 8.2 32.6 22.4M3354.9 1403.7c5.5 14.2 4.5 22.6-12.6 29.2-17.2 6.7-30.3-1.8-35.8-16-5.5-14.2-1.4-28.9 15.8-35.5 17.2-6.7 27.1 8.1 32.6 22.3M3447.3 1711c5.5 14.2 4.5 22.6-12.6 29.2-17.2 6.7-30.3-1.8-35.8-16-5.5-14.2-1.4-28.9 15.8-35.6 17.2-6.6 27.1 8.2 32.6 22.4M3527.4 1615.4c5.5 14.2 4.5 22.6-12.7 29.2-17.2 6.7-30.3-1.8-35.8-16-5.5-14.2-1.4-28.9 15.8-35.6 17.2-6.6 27.1 8.2 32.7 22.4M3711.1 1689.3c5.5 14.2 4.5 22.6-12.6 29.2-17.2 6.6-30.3-1.8-35.8-16-5.5-14.2-1.4-28.9 15.8-35.6 17.2-6.6 27.1 8.2 32.6 22.4M3842.9 1582c5.5 14.2 4.5 22.6-12.6 29.2-17.2 6.7-30.3-1.8-35.8-16-5.5-14.2-1.4-28.9 15.8-35.6 17.1-6.6 27.1 8.1 32.6 22.4M4199 1348.2c5.5 14.2 4.5 22.6-12.6 29.2-17.2 6.6-30.3-1.8-35.8-16-5.5-14.2-1.4-28.9 15.8-35.5 17.1-6.7 27 8.1 32.6 22.3M4342.8 1603.5c5.5 14.2 4.5 22.6-12.6 29.2-17.2 6.6-30.3-1.8-35.8-16-5.5-14.2-1.4-28.9 15.8-35.6 17.1-6.6 27.1 8.2 32.6 22.4M4528.6 1414.7c5.5 14.2 4.5 22.6-12.7 29.2-17.2 6.7-30.3-1.8-35.8-16-5.5-14.2-1.4-28.9 15.8-35.6 17.2-6.7 27.2 8.1 32.7 22.4"></path><path fill="none" stroke="#ffa730" stroke-miterlimit="10" stroke-width="1.81" d="M2382.8 2146v-612.2l137.6 161.2 86.2-306.1 205.5 306.1 176.1-108.7 194.4 320.6 89.9-260.8 216.5 184.7 325.3-75.1 240.9 121 152.8-278.9 128.4 216.7 73.4-220.1 89 13.6v538"></path><path fill="#f9be13" d="M2406.7 1530c5.5 14.2 4.5 22.6-12.6 29.2-17.2 6.6-30.3-1.8-35.8-16-5.5-14.2-1.4-28.9 15.8-35.6 17.1-6.6 27.1 8.2 32.6 22.4M2541.3 1690.4c5.5 14.2 4.5 22.6-12.6 29.2-17.2 6.6-30.3-1.8-35.8-16-5.5-14.2-1.4-28.9 15.8-35.6 17.1-6.6 27.1 8.2 32.6 22.4M2633.7 1385.1c5.5 14.2 4.5 22.6-12.7 29.2-17.2 6.7-30.3-1.8-35.8-16-5.5-14.2-1.4-28.9 15.8-35.5 17.3-6.7 27.2 8.1 32.7 22.3M3009.4 1585.5c5.5 14.2 4.5 22.6-12.6 29.2-17.2 6.6-30.3-1.8-35.8-16-5.5-14.2-1.4-28.9 15.8-35.6 17.1-6.6 27 8.2 32.6 22.4M2842 1692.5c5.5 14.2 4.5 22.6-12.6 29.2-17.2 6.7-30.3-1.8-35.8-16-5.5-14.2-1.4-28.9 15.8-35.6 17.2-6.6 27.1 8.2 32.6 22.4M3202.3 1901.9c5.5 14.2 4.5 22.6-12.6 29.2-17.2 6.7-30.3-1.8-35.8-16-5.5-14.2-1.4-28.9 15.8-35.6 17.2-6.6 27.1 8.2 32.6 22.4M3294.7 1645.3c5.5 14.2 4.5 22.6-12.7 29.2-17.2 6.7-30.3-1.8-35.8-16-5.5-14.2-1.4-28.9 15.8-35.6 17.3-6.7 27.2 8.1 32.7 22.4M3515.4 1827c5.5 14.2 4.5 22.6-12.6 29.2-17.2 6.7-30.3-1.8-35.8-16-5.5-14.2-1.4-28.9 15.8-35.6 17.2-6.7 27.1 8.1 32.6 22.4M3840.7 1751.8c5.5 14.2 4.5 22.6-12.6 29.2-17.2 6.7-30.3-1.8-35.8-16-5.5-14.2-1.4-28.9 15.8-35.6 17.2-6.6 27.1 8.2 32.6 22.4M4074.8 1869.8c5.5 14.2 4.5 22.6-12.6 29.2-17.2 6.6-30.3-1.8-35.8-16-5.5-14.2-1.4-28.9 15.8-35.6 17.1-6.6 27 8.2 32.6 22.4M4356 1807.7c5.5 14.2 4.5 22.6-12.6 29.2-17.2 6.7-30.3-1.8-35.8-16-5.5-14.2-1.4-28.9 15.8-35.6 17.2-6.7 27.1 8.1 32.6 22.4M4427 1598.1c5.5 14.2 4.5 22.6-12.6 29.2-17.2 6.6-30.3-1.8-35.8-16-5.5-14.2-1.4-28.9 15.8-35.6 17.1-6.7 27 8.1 32.6 22.4M4227.8 1598.1c5.5 14.2 4.5 22.6-12.6 29.2-17.2 6.6-30.3-1.8-35.8-16-5.5-14.2-1.4-28.9 15.8-35.6 17.2-6.7 27.1 8.1 32.6 22.4"></path><path fill="#9696ed" d="M1916.9 1812.9h65.4V2146h-65.4z"></path><path fill="#9696ed" d="M1979.8 2073.4h334.1v6.9h-334.1z"></path><path fill="none" stroke="#e65e75" stroke-miterlimit="10" stroke-width="1.799" d="M1892.6 2126.7h1021.6l70-182.4 134.1 77.3 265.6-95.4 117.2 124.4 143.7-99 120.7 106.2 157-164.2 143.7 148.5 173.6-97.2 119.5 109.6 139.5-145.8V2146"></path><path fill="#e65e75" d="M3006.6 1938.5c5.5 14.2 4.5 22.6-12.7 29.2-17.2 6.6-30.3-1.8-35.8-16-5.5-14.2-1.4-28.9 15.8-35.6 17.3-6.6 27.2 8.2 32.7 22.4M3146.5 2022c5.5 14.2 4.5 22.6-12.6 29.2-17.2 6.6-30.3-1.8-35.8-16-5.5-14.2-1.4-28.9 15.8-35.6 17.1-6.6 27.1 8.1 32.6 22.4M3414.2 1922.1c5.5 14.2 4.5 22.6-12.6 29.2-17.2 6.7-30.3-1.8-35.8-16-5.5-14.2-1.4-28.9 15.8-35.6s27.1 8.1 32.6 22.4M3521.2 2049.7c5.5 14.2 4.5 22.6-12.6 29.2-17.2 6.6-30.3-1.8-35.8-16-5.5-14.2-1.4-28.9 15.8-35.6 17.1-6.6 27 8.2 32.6 22.4M3674.5 1949.8c5.5 14.2 4.5 22.6-12.6 29.2-17.2 6.7-30.3-1.8-35.8-16s-1.4-28.9 15.8-35.6c17.2-6.6 27.1 8.2 32.6 22.4M3787.4 2049.7c5.5 14.2 4.5 22.6-12.6 29.2-17.2 6.6-30.3-1.8-35.8-16-5.5-14.2-1.4-28.9 15.8-35.6 17.2-6.6 27.1 8.2 32.6 22.4M3948.1 1889.9c5.5 14.2 4.5 22.6-12.6 29.2-17.2 6.6-30.3-1.8-35.8-16-5.5-14.2-1.4-28.9 15.8-35.6 17.2-6.7 27.1 8.1 32.6 22.4M4086.2 2036.7c5.5 14.2 4.5 22.6-12.6 29.2-17.2 6.7-30.3-1.8-35.8-16-5.5-14.2-1.4-28.9 15.8-35.6 17.1-6.6 27 8.2 32.6 22.4M4264 1945.4c5.5 14.2 4.5 22.6-12.6 29.2-17.2 6.7-30.3-1.8-35.8-16-5.5-14.2-1.4-28.9 15.8-35.6 17.1-6.6 27 8.2 32.6 22.4M4380.8 2043.8c5.5 14.2 4.5 22.6-12.6 29.2-17.2 6.6-30.3-1.8-35.8-16-5.5-14.2-1.4-28.9 15.8-35.6 17.1-6.6 27 8.2 32.6 22.4M4522.6 1901.2c5.5 14.2 4.5 22.6-12.6 29.2-17.2 6.7-30.3-1.8-35.8-16-5.5-14.2-1.4-28.9 15.8-35.6 17.2-6.6 27.1 8.2 32.6 22.4"></path><path fill="#ffa730" d="M2001.6 1922.2h65.4V2146h-65.4zM2067 2138.2h315.8v7.8H2067z"></path><path fill="#e65e75" d="M1827.2 2055h65.4v76.4h-65.4z"></path><path fill="#22559f" d="M1827.2 2131.4s-111.3 25.9-32.6 34.1c78.7 8.2 2754.8 23.8 2748-4.1-6.8-27.9-31.2-25.2-43.8-23.8-12.7 1.3-2634.9-21.3-2671.6-6.2"></path><path fill="#4676b7" d="M2116.7 758.1s-40.8 29.4 8.7 38c49.6 8.6 29.2-42.9 18.5-43.9-10.7-.9-27.2 5.9-27.2 5.9M3259.8 758.1s-40.8 29.4 8.7 38c49.6 8.6 29.2-42.9 18.5-43.9-10.7-.9-27.2 5.9-27.2 5.9M4245.9 758.1s-40.8 29.4 8.7 38c49.6 8.6 29.2-42.9 18.5-43.9-10.7-.9-27.2 5.9-27.2 5.9"></path><path fill="#4a88ef" d="M2129 774.6c-17.9 10.1-65.4-513.6-42-560.2 23.3-11.7 56.9 551.9 42 560.2M3266.4 774.6c-18.8 8.3-14.9-517.5 12.8-561.6 24.3-9.4 2.7 554.8-12.8 561.6M4260.9 774.6c-18.8 8.3-14.9-517.5 12.8-561.6 24.3-9.4 2.7 554.8-12.8 561.6"></path><path fill="#2c64ad" d="M1557.9 259.2c2.1 23.3 17 46 65.5 50 87 7.2 2232 32.5 2994.6 31-194-15-385.4-69.6-581.7-72.8-826.1-20.3-1652.2-8.5-2478.4-8.2"></path><path fill="#87bcf1" d="M4883.3 226.1c-41.2-26.2-3269.5-65.6-3312.8-21.9 0 0-15 27.9-12.6 55 826.2-.2 1652.3-12 2478.5 8.2 196.3 3.2 387.6 57.7 581.7 72.8 83.7-.2 150.7-.7 196.6-1.5 27.6-2.7 55.2-6 82.9-9.7 37.8-23.6 22.8-79.3-14.3-102.9"></path><g opacity=".5"><defs><path id="s" d="M1578 824.6h991.8v877.9H1578z"></path></defs><clipPath id="t"><use overflow="visible" xlink:href="#s"></use></clipPath><path fill="#f2f2f2" d="M1578 1562.4c21-26.5 564.7-716.7 731.2-737l260.6-.9-984 877.9-7.8-140z" clip-path="url(#t)"></path></g><g opacity=".5"><defs><path id="u" d="M1597.9 823.9h1220.2v1090.6H1597.9z"></path></defs><clipPath id="v"><use overflow="visible" xlink:href="#u"></use></clipPath><path fill="#f2f2f2" d="M1597.9 1841.6c21-26.5 882.6-786.7 1161.6-1017.7l58.6.7-1211.4 1089.9-8.8-72.9z" clip-path="url(#v)"></path></g><g opacity=".2"><defs><path id="w" d="M1734.2 595.9h594.3v605.9h-594.3z"></path></defs><clipPath id="x"><use overflow="visible" xlink:href="#w"></use></clipPath><path fill="#f9be13" d="M1742.1 662.9s-39.5 462.1 57.3 507.8c96.8 45.7 193.8 50.9 373.9-52.3s159.5-206.1 147.7-274.9c-11.8-68.8-410.1-247.6-410.1-247.6l-168.8 67z" clip-path="url(#x)"></path></g><path fill="#2c64ad" d="M1849.6 290.9s-97.1 181.2-117.6 190.3l13.6 7.4s126.1-156.4 121-190.7c-21.7 1.7-17-7-17-7"></path><path fill="#75afe8" d="M1806 495.1c-37.9-23-60.3-27-60.3-27s-76.7-15.3-66.5 20.4l11.3 36.1c41.7 3.8 82.6-5.6 115.5-29.5"></path><path fill="#2c64ad" d="M1806 495.1c-32.9 23.9-73.8 33.3-115.4 29.5l32.4 103c53.3-14.3 119-34 156.8-76.5-28.4-25.7-53.4-43.6-73.8-56"></path><path fill="#75afe8" d="m1723 627.6 4.6 14.7c65.4-2.2 134.5-23.4 168.6-75.7-5.6-5.5-11.1-10.6-16.5-15.5-37.8 42.5-103.5 62.3-156.7 76.5"></path><path fill="#2c64ad" d="M1896.2 566.7c-34.1 52.3-103.2 73.5-168.6 75.7l7.9 25.1s127.8 32.4 189.1-71.6c-9.8-10.6-19.2-20.3-28.4-29.2"></path><g opacity=".2"><defs><path id="y" d="M3874.4 595.9h810.8V1317h-810.8z"></path></defs><clipPath id="z"><use overflow="visible" xlink:href="#y"></use></clipPath><path fill="#f9be13" d="M4649.1 662.9s106.3 479.4-45.5 577.9c-89.8 58.2-328 125.8-508.1 22.7-180.1-103.1-260.5-364.7-202.4-488.8 76.6-163.6 587.2-178.9 587.2-178.9l168.8 67.1z" clip-path="url(#z)"></path></g><path fill="#2c64ad" d="M4541.6 290.9s97.1 181.2 117.6 190.3l-13.6 7.4s-126.1-156.4-121-190.7c21.7 1.7 17-7 17-7"></path><path fill="#75afe8" d="M4585.2 495.1c37.9-23 60.3-27 60.3-27s76.7-15.3 66.5 20.4l-11.3 36.1c-41.7 3.8-82.6-5.6-115.5-29.5"></path><path fill="#2c64ad" d="M4585.2 495.1c32.9 23.9 73.8 33.3 115.4 29.5l-32.4 103c-53.3-14.3-119-34-156.8-76.5 28.4-25.7 53.4-43.6 73.8-56"></path><path fill="#75afe8" d="m4668.3 627.6-4.6 14.7c-65.4-2.2-134.5-23.4-168.6-75.7 5.6-5.5 11.1-10.6 16.5-15.5 37.7 42.5 103.4 62.3 156.7 76.5"></path><path fill="#2c64ad" d="M4495 566.7c34.1 52.3 103.2 73.5 168.6 75.7l-7.9 25.1s-127.8 32.4-189.1-71.6c9.8-10.6 19.2-20.3 28.4-29.2"></path><path fill="#75afe8" d="M3792.2 1413.3c-9.3 4.4-21.5 5.8-24.6-4.1-3.1-9.9-10.7-116.2-5.4-120.8 5.3-4.6 34.8 1.5 38.4 11.7 3.5 10.2 1 108.8-8.4 113.2M3837.4 1412.2c-9.3 5.7-21.5 7.7-24.6-5.4-3.1-13.1-10.7-153.1-5.4-159.1 5.3-6 34.8 2 38.4 15.4 3.4 13.4.9 143.3-8.4 149.1M3889.9 1411.5c-9.3 6.7-21.5 8.9-24.6-6.2-3.1-15.2-10.7-177.7-5.4-184.7 5.3-7 34.8 2.3 38.4 17.9 3.4 15.5.9 166.3-8.4 173M3751.1 1258.4s111.2-71.2 111.7-81.9c-28.9 3.6-27.9-4.6-20.2-6.6 7.7-2 42.8-5.1 47.2-8.1 4.3-3.1 1 37.1-4.3 38.1s-7.4-13.7-6.6-18.8c.8-5.1-99.8 81.9-108 84.9-8.2 3.1-9.1-4.6-7.2-6.6 1.9-2-12.6-1-12.6-1M2862.4 1175.9s73.9-120.4 127.4-81.6c53.5 38.9 64.6 36.4 81.3 7.1 16.7-29.3-23.3-5.4-23.3-5.4s-7.1 6.7-2.9-5c4.2-11.7 47.5-19.6 50.4-19.2 2.9.4 30.4 52.9 21.2 49.5-8.7-5.8-16.2-30-23.7-30.4s-27.9 58.3-63.3 41.6c-35.4-16.7-68.3-50.4-89.9-22.1-21.7 28.4-80.3 92.1-77.2 65.5"></path><path fill="#9bc6ee" d="M3182.1 1012.8c0 30-25 44.2-54.9 44.2-30 0-65.6-14.2-65.6-44.2 0-30 24.3-54.2 54.2-54.2 30 0 66.3 24.3 66.3 54.2"></path><path fill="#fcc677" d="M3166 1011.5c0 21.9-18.3 32.4-40.2 32.4-22 0-48.1-10.4-48.1-32.4 0-21.9 17.8-39.7 39.7-39.7 22-.1 48.6 17.7 48.6 39.7"></path><path fill="#75afe8" d="M3154.3 1010.5c0 16.1-13.4 23.8-29.6 23.8-16.1 0-35.4-7.7-35.4-23.8s13.1-29.2 29.2-29.2c16.2 0 35.8 13.1 35.8 29.2"></path><path fill="#fcfcfc" d="M3140.6 1009.4c0 9.3-7.8 13.7-17.1 13.7s-20.4-4.4-20.4-13.7c0-9.3 7.5-16.9 16.9-16.9s20.6 7.6 20.6 16.9"></path><path fill="#75afe8" d="M2074.9 1488.7c-22.8 0-46.8 26-46.8 51.2 0 25.2 24 45.6 46.7 45.6 22.8 0 45.8-20.4 45.8-45.6.1-25.3-22.9-51.2-45.7-51.2m0 83.5c-16.1 0-29.2-14.5-29.2-32.3 0-17.8 13.1-32.3 29.2-32.3s24.7 14.5 24.7 32.3c.1 17.8-8.5 32.3-24.7 32.3"></path><path fill="#75afe8" d="M2066.4 1584.5s-26.6 179.6-8.9 179.6c17.7 0 17.9-25.7 17.5-97.9-.4-72.2 1.1-76.5-.2-80.7-1.2-4.3-8.4-1-8.4-1"></path><defs><path id="A" d="M3836.2 1632.5c-10.7 6.1 51.3 50.5 42.6 58.5-54.5 50.5-9.1 58.5 29.3 82.1 10.2 6.3 21.6 7.1 31.3 11 6.4 1.2 12.2 3.1 11.7-5.2-.9-15.2-15.8-30.7-13.8-45.9 5.7-43.7-24.2-55.4-44.4-68.7-7.8-5.1-42-32.4-54.2-32.4-1 0-1.8.2-2.5.6"></path></defs><clipPath id="B"><use overflow="visible" xlink:href="#A"></use></clipPath><linearGradient id="C" x1="1829.921" x2="1834.701" y1="2775.826" y2="2775.826" gradientTransform="scale(-89.0428 89.0428) rotate(-42.587 -2642.355 3803.209)" gradientUnits="userSpaceOnUse"><stop offset="0" stop-color="#ffc7d0"></stop><stop offset="1" stop-color="#e65e75"></stop></linearGradient><path fill="url(#C)" d="m3893.3 1850.7-146.4-134.6 135.7-147.6L4029 1703z" clip-path="url(#B)"></path><path fill="#4e4ed8" d="M4155.5 2028.4c-28.8 46.6-84.5 19-122-11.1-54.2-45.5-72.1-116.7-118.6-167.8 27.6 86.5 86.1 202.5 156.9 223.5 95.5 28.4 185-42.2 278.8-125.4-69.4-35.5-147.4-3-195.1 80.8"></path><path fill="#9696ed" d="M4367.1 1794.4c-126.2 20.7-221.6 139.3-276.2 177.7-55.3-120.9-124.5-174.5-134.4-208.2-33 10.5-57.7-6.2-57.7-6.2-3.9 13.1 2.2 48.9 16 92.1 46.4 51 64.3 122.2 118.6 167.8 37.5 30.1 93.2 57.7 122 11.1 47.7-83.8 125.7-116.3 195.1-80.7 10.4-9.2 20.8-18.5 31.3-27.9 6.4-46.5 32.2-120.6-14.7-125.7"></path><path fill="#212121" d="M3969.9 1738.8c-20.4 12.8-131.5 23.9-124.5 49s29.6 34.2 48.7 30.3c19.1-3.9 87.6-48.2 84.8-52.6-2.7-4.5 11.4-39.6-9-26.7"></path><path fill="#fcfcfc" d="M3929.9 1879.4c11.5 38.9 30.5 75.2 53.4 108.6 11.5 16.7 23.8 33 37.1 48.3 12.8 14.7 28.2 25.6 46.6 32.2 20 7.2 41.5 9.4 62.6 9.6 1.6 0 1.6-2.5 0-2.5-18.6-.2-37.3-2-55.1-7.3-18.6-5.5-35.1-15.2-48.3-29.4-13.7-14.7-25.9-31.1-37.4-47.5-11.3-16.1-21.8-32.9-30.9-50.4-10.4-19.9-19.1-40.7-25.5-62.3-.6-1.5-3-.9-2.5.7"></path><path fill="#4e4ed8" d="M4090.9 1972.1c2.1 4.5 2.8 9.5 2.3 14.4-.1 1.1 1 2.1 2.1 2.1 1.2 0 1.9-.9 2.1-2.1.6-5.7-.5-11.4-2.9-16.5-.5-1-1.9-1.3-2.8-.7-1.1.6-1.3 1.8-.8 2.8"></path><path fill="#4676b7" d="M4856.7 3534.1c0 31.3-212.1 56.6-473.7 56.6s-473.7-25.3-473.7-56.6 212.1-56.6 473.7-56.6 473.7 25.4 473.7 56.6"></path><path fill="#1b2c49" d="M4385.1 1599c1.7 13.9 19.5 23 33 1.4s3.1-40.1 10.7-48.5c7.6-8.4 1.5 4.9 19.8.8 18.3-4 21.7-28.3 7.6-39.5s-50.5 8.7-51.3 36.8c-.8 28.1-21.4 35-19.8 49"></path><path fill="#fff" d="M4224 3549s9.6 29.2 53.4 25.6c43.8-3.6 83.4-52.2 86.4-67.5l3-15.3-4.1-14.2c0-.1-141.5 65.9-138.7 71.4"></path><path d="M4223.7 3547.9s24.2 18.1 68.9 14.4c44.7-3.7 86.6-84.9 75.5-94.4-11.1-9.4-62.4-7-86.2 4.5-23.8 11.5-73 63.2-58.2 75.5"></path><defs><path id="D" d="m4319.5 3416.8-24.1 58.5s56.3 4.9 62.9-7.7c-.5-55.3 5.5-65.7 5.5-65.7l-44.3 14.9z"></path></defs><clipPath id="E"><use overflow="visible" xlink:href="#D"></use></clipPath><linearGradient id="F" x1="1874.124" x2="1878.906" y1="2710.025" y2="2710.025" gradientTransform="matrix(14.303 0 0 -14.303 -22510.23 42202.684)" gradientUnits="userSpaceOnUse"><stop offset="0" stop-color="#ffc7d0"></stop><stop offset="1" stop-color="#e65e75"></stop></linearGradient><path fill="url(#F)" d="M4295.4 3402h68.4v78.2h-68.4z" clip-path="url(#E)"></path><path fill="#050533" d="M4266.3 2904.9c-30.3-181.9-4.7-356.9-10.3-534.5-7.3 5.1-15.2 10.7-23.9 16.8-32.2 113-4.3 373.9 26.2 602.4 10.9-24.6 14.3-53.1 8-84.7"></path><path fill="#172c51" d="M4393.7 2830.9c23-89.3 53.9-173.9 69-260.6-2.8-96-8.6-178.4-13.7-229.5-106-22.7-115.2-24.6-192.9 29.6 5.5 177.6-20.1 352.6 10.2 534.5 6.3 31.6 2.9 60.2-7.9 84.8 25.6 191.6 53.1 360.5 48.7 400.2-16.4 31.2-52.1 51.3-7 56.2 45.1 4.9 91.1-5.7 75.5-42.7-5.1-12 48.3-127.2 73.3-249.3 2.6-49.8-.6-98.9-22.4-142.4-28.7-57.5-49.3-119.1-32.8-180.8"></path><g opacity=".2"><defs><path id="G" d="M4077.8 2153.3h559.3v1467.6h-559.3z"></path></defs><clipPath id="H"><use overflow="visible" xlink:href="#G"></use></clipPath><g clip-path="url(#H)"><defs><path id="I" d="M4077.8 2153.3h559.3v1467.6h-559.3z"></path></defs><clipPath id="J"><use overflow="visible" xlink:href="#I"></use></clipPath></g></g><path fill="#050533" d="M4462.7 2570.3c-15.2 86.7-46.1 171.3-69 260.6-16.4 61.6 4.1 123.2 32.9 180.8 21.7 43.5 25 92.6 22.3 142.4 13.1-64.1 18.4-130.2 3.3-184.1 13.1-131.2 14.2-276.7 10.5-399.7"></path><path fill="#fff" d="M4428.3 3549s9.6 29.2 53.4 25.6c43.8-3.6 83.4-52.2 86.4-67.5l3-15.3-4.1-14.2c.1-.1-141.5 65.9-138.7 71.4"></path><path d="M4428 3547.9s24.2 18.1 68.9 14.4c44.7-3.7 86.6-84.9 75.5-94.4-11.1-9.4-62.4-7-86.2 4.5-23.8 11.5-73 63.2-58.2 75.5"></path><defs><path id="K" d="m4523.8 3416.8-24.1 58.5s56.3 4.9 62.9-7.7c-.5-55.3 5.5-65.7 5.5-65.7l-44.3 14.9z"></path></defs><clipPath id="L"><use overflow="visible" xlink:href="#K"></use></clipPath><linearGradient id="M" x1="1885.421" x2="1890.202" y1="2710.025" y2="2710.025" gradientTransform="matrix(14.303 0 0 -14.303 -22467.492 42202.684)" gradientUnits="userSpaceOnUse"><stop offset="0" stop-color="#ffc7d0"></stop><stop offset="1" stop-color="#e65e75"></stop></linearGradient><path fill="url(#M)" d="M4499.7 3402h68.4v78.2h-68.4z" clip-path="url(#L)"></path><path fill="#172c51" d="M4660.7 2683c34.1-117.4 15.8-234.8-13-349-135.6-157.1-230.5 46.1-219.4 104.8 0 0 14.3 225.6 37.7 470.6 20 209.6 49.9 440.3 45.4 480.4-16.4 31.2-52.1 51.3-7 56.2 45.1 4.9 91.1-5.7 75.5-42.7-5.8-13.8 53-142.6 72.7-279-3.1-65-20.9-132.2-41.2-190.7-28.8-78 28.8-164.3 49.3-250.6"></path><g opacity=".2"><defs><path id="N" d="M4254.7 2100.7h597.6v1520.2h-597.6z"></path></defs><clipPath id="O"><use overflow="visible" xlink:href="#N"></use></clipPath><g clip-path="url(#O)"><defs><path id="P" d="M4254.7 2100.7h597.6v1520.2h-597.6z"></path></defs><clipPath id="Q"><use overflow="visible" xlink:href="#P"></use></clipPath></g></g><path fill="#050533" d="M4648.3 2954.2c27.4-204.7 149.1-437.2 5-613.4-1.9-2.3-3.8-4.5-5.7-6.7 28.8 114.2 47.1 231.6 13 349-20.5 86.3-78.1 172.5-49.3 250.6 20.3 58.5 38 125.7 41.2 190.7 8.5-58.2 9.7-117.7-4.2-170.2"></path><path fill="#9696ed" d="M4624.5 2244.1c-52.6-133.9-129.1-277.3-33.5-420.7 7.3-9.7 7.2-19.4 5.9-29.1-4.6-3.9-9.4-7.5-14.3-10.8-52-15.8-75.2-5.1-117.9-4.3-48.1.9-102.5 11.9-127.1 37.2-47 48.4-111.4 194.7-135.4 331.8-8.9 137.4 91.6 273.6 244.4 226.5 77.2-20.3 154.4-28.5 231.6 11 .6-1 .7-3.6 2-3.2 16.2 5.7 28.9-26 35.7-77.8-41.8-4.7-77.6-21.6-91.4-60.6"></path><path fill="#4e4ed8" d="M4597 1794.4c1.2 9.7 1.3 19.4-5.9 29.1-95.6 143.4-19.1 286.8 33.5 420.7 13.8 39 49.5 55.9 91.5 60.9 17.9-137.3-5.9-415.5-119.1-510.7M4446.8 2374.9c-152.8 47-253.3-89.1-244.4-226.5-17 96.8-13.8 189 29.9 238.8 46.2 52.7 112.4 31.7 183.1 42.5 70.7 10.8 114-17.4 164.5-33.4 49.5-15.7 66.5 40.8 98.6-10.3-77.3-39.6-154.5-31.4-231.7-11.1"></path><path fill="#fff" d="M4547.9 3487.4s-12.6 2.7-8.8 11.2c3.8 8.5 8.8 13.1 15 8.8 6.3-4.4 5.7-7.6 1.9-14.5-3.6-7-8.1-5.5-8.1-5.5M4343.6 3487.4s-12.6 2.7-8.8 11.2c3.8 8.5 8.8 13.1 15 8.8 6.3-4.4 5.7-7.6 1.9-14.5-3.6-7-8.1-5.5-8.1-5.5"></path><defs><path id="R" d="M4438.5 1678.4c0 2.2-10.6 210.7-10.6 210.7s58.2 50.5 81.2-44.9c-13.1-92.4-18.6-174-18.6-174l-52 8.2z"></path></defs><clipPath id="S"><use overflow="visible" xlink:href="#R"></use></clipPath><linearGradient id="T" x1="1835.192" x2="1839.973" y1="2764.561" y2="2764.561" gradientTransform="matrix(0 -45.844 -45.844 0 131206.844 86047.445)" gradientUnits="userSpaceOnUse"><stop offset="0" stop-color="#ffc7d0"></stop><stop offset="1" stop-color="#e65e75"></stop></linearGradient><path fill="url(#T)" d="M4427.9 1670.2h81.2v269.4h-81.2z" clip-path="url(#S)"></path><defs><path id="U" d="M4401.5 1599.9s-13.6 129.7 78 110c47.8-11 56.1-69.7 39.9-137.2-7.6-25.3-34-46.8-60.2-46.8-25 .1-49.7 19.6-57.7 74"></path></defs><clipPath id="V"><use overflow="visible" xlink:href="#U"></use></clipPath><linearGradient id="W" x1="1851.267" x2="1856.048" y1="2775.371" y2="2775.371" gradientTransform="scale(36.8319 -36.8319) rotate(43.185 4549.751 -823.893)" gradientUnits="userSpaceOnUse"><stop offset="0" stop-color="#ffc7d0"></stop><stop offset="1" stop-color="#e65e75"></stop></linearGradient><path fill="url(#W)" d="m4286.3 1621.3 180.2-169 170.7 181.9-180.1 169.1z" clip-path="url(#V)"></path><path fill="#1b2c49" d="M4426.4 1537s-16 19.1 60 28.3c16.9 1.7 23 32.6 31.1 33.3 8.1.7 32.6 13.4 29.1-17.5s-17.7-67-49.1-69.7c-31.2-2.7-67.4-4.5-71.1 25.6M4379.9 1786.3c-17.2 18.6 81.4 238.9 90.8 190.2 9.5-48.7-31.6-186.4-38.6-201.5-7.1-15.2-35-7.3-52.2 11.3"></path><path fill="#1b2c49" d="M4472.8 2017.1c-20.6 0-30.6-87.1 6.7-161 21.3-42.1 9.7-81.1 20-88.2 62.2-19 83.9 37.6 42.2 70.6-41.8 33-48.4 178.6-68.9 178.6M4495.4 1711.6s13.2 5.1 25.5-6.9 8.6-42.3 6.3-47.7c-2.3-5.4 50.9 3.3 55.2-42.7 4.3-46-28.5-68.9-56.7-75.5-28.2-6.6-47.4-11.9-79.1-8.3-31.7 3.6-38.7 18.2-17.2 38.2 21.5 19.9 75.6 23 81.6 22.7 6-.3-31.7 69.6-26.5 79.5 5.1 10.1-8.1 33.2 10.9 40.7"></path><path fill="#fcfcfc" d="M4200.5 2161.6c2 7.9.8 16 1.2 24.1.4 7.7 2 15.2 4.2 22.5 4.6 15.7 10.7 31.1 16.1 46.5.5 1.5 2.9.8 2.4-.7-5.5-15.4-11.5-30.8-16.1-46.5-2.2-7.7-3.9-15.5-4.1-23.5-.2-7.7.7-15.5-1.2-23.1-.5-1.5-2.9-.8-2.5.7M4675.5 2385.6c1 3.9-2.5 7-5.5 8.7-1.7 1-3.5 1.9-5.2 3-1.8 1.1-3.5 2.5-5.1 3.9-1.2 1.1.6 2.8 1.7 1.7 1.7-1.5 3.6-2.9 5.5-4s4-2.1 5.8-3.4c3.4-2.4 6.3-6.3 5.2-10.6-.4-1.5-2.8-.8-2.4.7M4456.1 1955.7c-1.6 20.6 1.4 41.3 8.7 60.5.6 1.5 3 .8 2.4-.7-7.3-19.1-10.2-39.5-8.6-59.9.1-1.5-2.4-1.5-2.5.1M4661.2 1887.3c3.9 4.1 6.1 9.3 8.1 14.5 1.9 4.8 3.6 9.7 5.2 14.7 3.2 10.3 5.6 20.8 7.2 31.5.2 1.6 2.6.9 2.4-.7-1.7-11.4-4.3-22.6-7.8-33.6-3.1-9.5-6.2-20.7-13.2-28.1-1.2-1.2-3 .5-1.9 1.7M4384.2 1786.2c.9 10.7 5.4 21.4 8.7 31.6 3.5 10.7 7.1 21.4 11.1 31.9 7.8 20.6 17.1 40.6 29.3 59 .9 1.3 3 .1 2.1-1.2-12.1-18.2-21.3-38-29.1-58.4-3.8-10-7.3-20.2-10.6-30.4-1.7-5.1-3.3-10.2-4.9-15.3-1.8-5.6-3.7-11.2-4.2-17.1-.1-1.7-2.5-1.7-2.4-.1M4442.8 1921.9c.7 3.5 3 6.3 5.2 9 .4.5 1.3.4 1.8 0 .5-.5.4-1.2 0-1.7-1.9-2.4-3.9-4.9-4.5-7.9-.1-.7-.9-1-1.5-.9-.8.2-1.2.9-1 1.5M4562.1 2445.5c-1.7 16.7 1.2 34.7 11.6 48.2 5.5 7.2 13 12.2 20.9 16.6 8.7 4.8 17.5 9.4 26.7 13.3 10.4 4.4 21.4 7.5 32.7 8.1 1.6.1 1.6-2.4 0-2.5-19.3-1-36.8-9.6-53.5-18.5-8.1-4.3-16.3-8.8-22.5-15.7-5.6-6.2-9.4-13.9-11.5-22-2.4-8.9-2.8-18.3-1.8-27.5 0-1.6-2.5-1.6-2.6 0M4659.6 2412.8c.9 5.4 1.7 10.7 2.6 16.1.1.7.9 1 1.5.9.7-.2 1-.9.9-1.5-.9-5.4-1.7-10.7-2.6-16.1-.1-.7-.9-1-1.5-.9-.7.2-1 .9-.9 1.5M4664.9 2442.8c.5 4 .7 8.1.5 12.2-.1 1.6 2.4 1.6 2.5 0 .2-4.1.1-8.2-.5-12.2-.1-.7-.5-1.2-1.2-1.2-.7-.1-1.4.5-1.3 1.2M4669.4 2467.2c0 3.8.6 7.5 1.8 11.1.2.6.9 1 1.5.9.6-.2 1.1-.9.9-1.5-1.1-3.4-1.7-6.9-1.7-10.5-.1-1.6-2.5-1.6-2.5 0M4673.4 2489.1c-.3 5.5-.4 11.1-.2 16.6.1 1.6 2.5 1.6 2.5 0-.2-5.5-.1-11.1.2-16.6.1-1.6-2.4-1.5-2.5 0M4673.3 2517.5c.2 6.3.3 12.7.5 19 0 1.6 2.5 1.6 2.5 0-.2-6.3-.3-12.7-.5-19 0-1.6-2.5-1.6-2.5 0M4675 2549.2c2.9 6.2 3.2 13.3 1 19.8-.5 1.5 1.9 2.2 2.4.7 2.4-7.1 1.9-14.9-1.3-21.7-.6-1.5-2.7-.2-2.1 1.2M4677.2 2595.1c-2.2 22.9-7.1 45.4-14.4 67.1-.5 1.5 1.9 2.2 2.4.7 7.4-22 12.3-44.7 14.5-67.8.1-1.6-2.3-1.6-2.5 0M4657.1 2682.9c.7 6.3-1.1 12.7-5.2 17.6-1 1.2.7 3 1.7 1.8 4.4-5.4 6.6-12.4 5.9-19.4-.1-1.6-2.5-1.6-2.4 0M4244.2 2431.6c-.5 7.6.8 15 1.8 22.5 1.1 7.8 1.7 15.6.6 23.5-2.1 15.3-8.6 29.5-15.3 43.2-.7 1.4 1.4 2.7 2.1 1.2 6.7-13.8 13.3-28.1 15.5-43.4 1.1-7.6.9-15-.2-22.6-1.1-8.1-2.6-16.2-2.1-24.4.2-1.6-2.3-1.6-2.4 0"></path><path fill="#fcfcfc" d="M4652 2528.9c3 4.9 3.1 11.3.3 16.3-.8 1.4 1.3 2.6 2.1 1.3 3.3-5.8 3.2-13.1-.3-18.8-.8-1.4-2.9-.2-2.1 1.2"></path><path fill="#050533" d="M4521 3398.3c14.9 6.5 30.6.2 43.1-8.5 2.2-1.5.1-5.1-2.1-3.5-11.1 7.7-25.5 14.4-39 8.5-2.3-1-4.4 2.5-2 3.5M4312.4 3388.2c8.9 3.8 18.5 5.3 28.1 6.5 8.1 1.1 17 1.4 23.9-3.8 2.1-1.6 0-5.1-2.1-3.5-6.4 4.8-14.6 4.3-22.1 3.2-8.7-1.2-17.6-2.5-25.6-5.9-2.6-1.1-4.7 2.5-2.2 3.5M4417.2 2447.8c-3.8 37.7-6.3 75.6-7.3 113.5-.8 28.4-3.4 63.2 18.2 85.2 3.2 3.2 6.4 6 7.8 10.4 1.5 4.7 1.8 9.8 2.5 14.7 1.5 10.5 3 20.9 4.5 31.4.4 2.6 4.3 1.5 4-1.1-1.3-9.3-2.6-18.6-4-27.9-1.1-7.7-1.1-17.2-5.8-23.8-1.9-2.7-4.5-4.9-6.8-7.3-2.8-2.9-5.1-6.1-7.1-9.6-3.5-6.1-5.7-12.7-7.1-19.5-3.2-15.3-2.7-31.1-2.3-46.6.4-18.6 1.2-37.1 2.3-55.6 1.3-21.3 3-42.5 5.2-63.8.3-2.6-3.8-2.6-4.1 0"></path><path fill="#4e4ed8" d="M4269.8 1936.7c-.4-10.6 3.5-21.1 10.9-28.8 1.8-1.9-1.1-4.8-2.9-2.9-8.1 8.4-12.5 20-12.1 31.7.1 2.7 4.2 2.7 4.1 0M4645.1 1851.7c9.2 10.1 11.2 24.4 13.1 37.4.4 2.6 4.3 1.5 4-1.1-1.9-13.8-4.4-28.5-14.1-39.2-1.9-2-4.8.9-3 2.9"></path><defs><path id="X" d="M4279.5 2246.8c-10 6.5 14.2 43.5 2.3 39.7-49.4-15.8-79.7-.9-52.5 30.7 25 29 54.2 26.4 84.3 23.7 14.4-1.3 29-2.6 43.5-.4 11.6-3.1 6.9-28.2 11.7-37.5 1.8-6.2 10.2-20.1 1.9-20.5-6.1-.3-12.7.1-19.4.6-10.2.6-20.6 1.3-29.6-.6-7.4-1.5-33.2-36.1-41-36.1-.6.1-.9.2-1.2.4"></path></defs><clipPath id="Y"><use overflow="visible" xlink:href="#X"></use></clipPath><linearGradient id="Z" x1="1823.389" x2="1828.169" y1="2788.781" y2="2788.781" gradientTransform="scale(-62.2542 62.2542) rotate(41.359 4523.345 -1096.09)" gradientUnits="userSpaceOnUse"><stop offset="0" stop-color="#ffc7d0"></stop><stop offset="1" stop-color="#e65e75"></stop></linearGradient><path fill="url(#Z)" d="m4428.4 2302.6-149.1 131.3-126.7-143.9 149.1-131.3z" clip-path="url(#Y)"></path><path fill="#9696ed" d="M4579.9 1782.8c-24.3 25.8-20.4 79.2-10.6 125.3 34.2 114.9 41.3 200.1 52.3 254.3-56 69.8-206.2 119.6-240.9 125.1 4.2 23.3-3.8 41.1-9.2 50 128-15.2 302.7-47.4 339.1-174.6 19.1-71.7-28.7-148.2-14.3-229.5 2.7-16.3 8.2-30.3 15.7-42.3-36.5-54.8-96-103.9-132.1-108.3"></path><path fill="#9696ed" d="M4614 2118.5c2.1 13.1 4 25.1 6.1 36 3-11.3 1.8-24.5-6.1-36"></path><path fill="#9696ed" d="M4674.7 1845c-32.4-33.8-69.4-59-94.8-62.2-24.3 25.8-20.4 79.2-10.6 125.3 26.1 87.6 36.4 157.9 44.7 210.4 7.9 11.5 9 24.8 6.1 36 .5 2.7 1 5.4 1.5 7.9-5.8 7.3-12.7 14.3-20.4 21.1-54.6 64.6-137.9 96-219.4 114.6.6 18.1-5.7 31.9-10.3 39.4-2.5 4.1-4.5 6.3-4.5 6.3.2.1.4.1.6.2 122.7-10 258.1-39.4 328.6-142.9 77.2-119.3 38.6-241.2-21.5-356.1"></path><path fill="#b5b5f4" d="M4601.2 2183.5c-65.7 58.6-189.4 99.1-220.5 104 .7 3.7 1 7.2 1.1 10.6 81.5-18.7 164.9-50.1 219.4-114.6"></path><path fill="#4e4ed8" d="M4731.9 1927c-5.3-12-12.1-24.1-19.9-35.9-10.8-16.2-23.6-31.9-37.3-46.1 60.1 115 98.7 236.8 21.6 356.1-70.6 103.5-205.9 132.9-328.6 142.9 17.5 7.1 61.5-3.7 113.3-10.9 72-10 146.5-45.5 217.1-92.5 57.9-38.4 76.7-214.2 33.8-313.6"></path><path fill="#212121" d="M4411.5 2273.2c-10 21.9-8.8 93.6-34.7 89.9-25.8-3.7-40.6-8.4-39.3-27.9 1.4-19.5 25.8-74.9 31.8-77.2 15.4-1.6 52.2-6.7 42.2 15.2"></path><defs><path id="aa" d="M2672.7 1516.8c11 17.4 104.1 178.5-104 329.5-54 43.6-66.7 73.7-57.2 98.7s89.8 19.8 118.4 3.8c0 0 143.6-92.5 148.5-206.2 5.7-131.2-70.5-221.5-70.5-221.5s45.1-58.8-20.5-62.6c-16.6 11.9 3-55-12.8-57.9-.2 0-.4-.1-.7-.1-14.9 0-12.1 99.2-1.2 116.3"></path></defs><clipPath id="ab"><use overflow="visible" xlink:href="#aa"></use></clipPath><linearGradient id="ac" x1="1826.032" x2="1830.813" y1="2778.091" y2="2778.091" gradientTransform="scale(175.2569 -175.2569) rotate(-69.649 -1082.114 2687.323)" gradientUnits="userSpaceOnUse"><stop offset="0" stop-color="#ffc7d0"></stop><stop offset="1" stop-color="#e65e75"></stop></linearGradient><path fill="url(#ac)" d="m2750 1308.5 219.8 592.7-433.7 160.9-219.8-592.7z" clip-path="url(#ab)"></path><path fill="#ffc261" d="M2524.3 1884.6c-21.8 32.1-40.7 61.5 13.4 95.2 12.2.2 25.2-2.3 38.4-6.9 45.8-18.1 77.5-53.8 112.3-86.9l-87-91.8c0-.1-37.4 31.9-77.1 90.4"></path><path fill="#f45100" d="M2576.1 1972.8c-13.1 4.6-26.2 7.1-38.4 6.9 2.1 1.3 4.1 2.6 6.3 3.8 57.6 33.7 169-71.8 169-71.8l-24.5-25.9c-34.9 33.2-66.6 68.9-112.4 87"></path><path fill="#9374a3" d="M2621.2 1974.2c-5.5 2.7-10.2 6.7-15.4 10-5.3 3.3-11.2 5.3-17.4 6.4-12.2 2.1-24.9.5-37.1-1-3.2-.4-3.1 4.6 0 4.9 12.7 1.6 25.7 3 38.4.8 6.1-1.1 12-3 17.3-6.1 5.8-3.3 10.8-7.8 16.7-10.8 2.9-1.4.4-5.7-2.5-4.2"></path><path fill="#fcfcfc" d="M2683.3 1932.4c5-3.8 10.4-7.4 15.2-11.5 3.6-3.1 2.9-7 .2-10.5-3.5-4.5-7.3-8.6-10.6-13.3-3.1-4.5-6-9.2-9.1-13.6-3-4.3-6.1-8.4-9.8-12.1-4.2-4.3-9.3-7.6-13.8-11.6-9.1-8.2-16.1-18.6-24-27.8-8.8-10.1-18.2-19.6-29.3-27.2-1.3-.9-2.6 1.2-1.3 2.1 9.3 6.4 17.5 14.1 25 22.5 7.5 8.3 14.1 17.2 21.5 25.6 7.1 8 16.5 13.5 23.4 21.6 6.7 7.8 11.7 17 17.7 25.3 1.5 2 3 4 4.6 5.9 1.8 2.2 5.5 5 5.5 8.1 0 3.3-5.8 6.3-8.3 8.1-2.8 2.1-5.5 4.2-8.3 6.3-1.1.9.1 3.1 1.4 2.1"></path><path fill="#4676b7" d="M3013.7 3541c-1.1 47.7-355.8 52.3-460.8 55.7-105 3.4-607 28-615.8-49.8-8.9-77.7 1077.7-53.6 1076.6-5.9"></path><defs><path id="ad" d="M2053.3 3393.4c5.9 4.5 48.8 26.7 48.8 26.7l53.7-82.2-44.4-31.6-58.1 87.1z"></path></defs><clipPath id="ae"><use overflow="visible" xlink:href="#ad"></use></clipPath><linearGradient id="af" x1="1772.178" x2="1776.959" y1="2759.291" y2="2759.291" gradientTransform="scale(24.0928 -24.0928) rotate(19.618 9314.697 -3569.768)" gradientUnits="userSpaceOnUse"><stop offset="0" stop-color="#ffc7d0"></stop><stop offset="1" stop-color="#e65e75"></stop></linearGradient><path fill="url(#af)" d="m2017.4 3319.2 126.9-45.3 47.5 133.4-126.9 45.2z" clip-path="url(#ae)"></path><defs><path id="ag" d="M2581.2 3432.6s18.2-13.9 35.2-8.2c2.3.8 1.9-78.2 1.9-78.2l-49.5-10.3 12.4 96.7z"></path></defs><clipPath id="ah"><use overflow="visible" xlink:href="#ag"></use></clipPath><linearGradient id="ai" x1="1758.764" x2="1763.545" y1="2687.431" y2="2687.431" gradientTransform="matrix(10.3638 0 0 -10.3638 -15658.604 31236.084)" gradientUnits="userSpaceOnUse"><stop offset="0" stop-color="#ffc7d0"></stop><stop offset="1" stop-color="#e65e75"></stop></linearGradient><path fill="url(#ai)" d="M2568.8 3335.8h49.9v96.7h-49.9z" clip-path="url(#ah)"></path><path fill="#051123" d="M2622.3 2434.7c-91.3 4.7-247.5 59.5-242.3 93.4 1.4 9.2 22.3 324.3 87.9 580.2 5.3-12.7 10.4-25.3 15.3-37.2 88.3-204.6 93.7-422.1 139.1-636.4"></path><path fill="#172c51" d="M2635.5 3362.3s-1.4-886.7-12.1-927.7c-.4 0-.7.1-1.1.1-45.4 214.3-50.8 431.8-139.1 636.3-5 12-10 24.5-15.3 37.2 26.3 102.6 59.8 195.8 102.1 255.8l65.5-1.7z"></path><g opacity=".2"><defs><path id="aj" d="M2203.4 2258.4h607.1v1281.2h-607.1z"></path></defs><clipPath id="ak"><use overflow="visible" xlink:href="#aj"></use></clipPath><g clip-path="url(#ak)"><defs><path id="al" d="M2203.4 2258.4h607.1v1281.2h-607.1z"></path></defs><clipPath id="am"><use overflow="visible" xlink:href="#al"></use></clipPath></g></g><path fill="#172c51" d="M2272.4 2496.4s25.3 342.2-53 529.3c-78.3 187.2-138.3 298.1-138.3 298.1s55.5 39.9 58.4 36.1c2.9-3.9 362.6-390.8 425-710.3 62.5-319.4 20.4-305.8 20.4-305.8s-328.8-.9-312.5 152.6"></path><g opacity=".1"><defs><path id="an" d="M1907 2167.6h865.3v1367.2H1907z"></path></defs><clipPath id="ao"><use overflow="visible" xlink:href="#an"></use></clipPath><g clip-path="url(#ao)"><defs><path id="ap" d="M1907 2167.6h865.3v1367.2H1907z"></path></defs><clipPath id="aq"><use overflow="visible" xlink:href="#ap"></use></clipPath></g></g><path fill="#ff7116" d="M2567.9 1863.2c-3-1-5.9-1.9-8.7-2.8 35.8 41.3 39.7 106.4 70.8 146.5-10-75.6-28.3-132.8-62.1-143.7"></path><path fill="#ff9725" d="M2630 2007c-31.1-40.1-35-105.2-70.8-146.5-86.1-27.1-93.2-17-93.2-17s-47.5 9.2-93.9 50.2c-29 56.8-29.5 130.7-2.7 177.6 69.4 131.2 93.8 280.4 63.6 419.5 96.3 6.5 202.8-.2 208.4-57.2-3.1-95.2 6.4-290.8-11.4-426.6"></path><path fill="#ff7116" d="M2369.4 2071.2c-26.8-46.8-26.4-120.8 2.7-177.6-47.4 41.8-93.6 116.8-87.3 248.9 12.5 261.6-50.7 286.4-37.7 333.6 12.9 47.1 107.1 9.3 186 14.7 30.1-139.2 5.7-288.4-63.7-419.6"></path><g opacity=".18"><defs><path id="ar" d="M2045.7 1665.6h769.7v1032.6h-769.7z"></path></defs><clipPath id="as"><use overflow="visible" xlink:href="#ar"></use></clipPath><g clip-path="url(#as)" opacity=".38"><defs><path id="at" d="M2174.8 1665.6h640.6v1003.9h-640.6z"></path></defs><clipPath id="au"><use overflow="visible" xlink:href="#at"></use></clipPath><g clip-path="url(#au)"><defs><path id="av" d="M2174.8 1665.6h640.6v1003.9h-640.6z"></path></defs><clipPath id="aw"><use overflow="visible" xlink:href="#av"></use></clipPath></g></g><g clip-path="url(#as)"><defs><path id="ax" d="M2045.7 1694.3h597.6v1003.9h-597.6z"></path></defs><clipPath id="ay"><use overflow="visible" xlink:href="#ax"></use></clipPath></g><g clip-path="url(#as)" opacity=".38"><defs><path id="az" d="M2174.8 1665.6h640.6v1003.9h-640.6z"></path></defs><clipPath id="aA"><use overflow="visible" xlink:href="#az"></use></clipPath><g clip-path="url(#aA)"><defs><path id="aB" d="M2174.8 1665.6h640.6v1003.9h-640.6z"></path></defs><clipPath id="aC"><use overflow="visible" xlink:href="#aB"></use></clipPath></g></g><g clip-path="url(#as)"><defs><path id="aD" d="M2045.7 1694.3h597.6v1003.9h-597.6z"></path></defs><clipPath id="aE"><use overflow="visible" xlink:href="#aD"></use></clipPath></g></g><defs><path id="aF" d="m2495.6 1781.8-32.8 75.7c17.4 36.8 89.7 30.1 89.7 30.1s-1.4-32.8-20.1-101.7c-1.3-6.7-7.4-8.7-14.3-8.7-10.3 0-22.5 4.6-22.5 4.6"></path></defs><clipPath id="aG"><use overflow="visible" xlink:href="#aF"></use></clipPath><linearGradient id="aH" x1="1833.931" x2="1838.712" y1="2802.027" y2="2802.027" gradientTransform="scale(38.6604 -38.6604) rotate(86.114 2475.648 429.086)" gradientUnits="userSpaceOnUse"><stop offset="0" stop-color="#ffc7d0"></stop><stop offset="1" stop-color="#e65e75"></stop></linearGradient><path fill="url(#aH)" d="m2454.9 1893.8 8.3-122.7 97.3 6.6-8.4 122.7z" clip-path="url(#aG)"></path><defs><path id="aI" d="M2458.8 1777.6c9.9 19 22.4 41.7 65 23.4 94.1-39.7-18.5-122.7-18.5-122.7-4.8-.6-9.2-.8-13.3-.8-71.8 0-42.6 82.1-33.2 100.1"></path></defs><clipPath id="aJ"><use overflow="visible" xlink:href="#aI"></use></clipPath><linearGradient id="aK" x1="1839.182" x2="1843.962" y1="2776.128" y2="2776.128" gradientTransform="scale(-77.6312 77.6312) rotate(4.129 39100.271 -24591.293)" gradientUnits="userSpaceOnUse"><stop offset="0" stop-color="#ffc7d0"></stop><stop offset="1" stop-color="#e65e75"></stop></linearGradient><path fill="url(#aK)" d="m2628 1818.6-206.8 14.9-11.2-155.3 206.8-14.9z" clip-path="url(#aJ)"></path><path fill="#1b2c49" d="M2551.8 1666.1c2.3 22.3-39.2 17.4-60 20.2 5.3 14.2-8.7 36.6-24.8 33.8 5.2 6.3 11.3 14.7 16.1 23.6-4.2-.6-7.7.1-8 4.3-.7 8.9 6.9 26.5 17 21.8.8 7.4-.6 14.3-5.1 19.8 0 0-15.7 48.6-63.6 30.3-47.9-18.4-7.6-66.3 1.7-67.6-33.4 1.4-35.3-61.9 5.6-60.7-9.3-35.3 40.4-46.8 51.4-22.6 26-24.3 62.9-34.5 69.7-2.9M2810.7 3439.5c-.9-27.6-28.2-42.2-57.8-46.4-39.5-5.6-101.2 41.4-101.2 41.4-23 .4-28.7-32.3-28.7-32.3l-50.2 14.5s.9 77.2 20.7 111.3c80.5 1.2 167.9-27.2 217.2-88.5"></path><path fill="#aecff1" d="M2593.5 3528.1c6.1 10.5 14 17 24.2 15.8 43.4-5.1 158.1-23.6 184.1-72.3 6.5-12.2 9.2-22.9 8.9-32.1-49.3 61.3-136.7 89.7-217.2 88.6"></path><path fill="#e65e75" d="M2680.4 3394.5s-2.6 56 2.5 41.8c5.1-14.2 10.2-49.2 21-51.5 10.8-2.4 10.4 37.1 21.7 32.5 11.3-4.6-6.5-42.1 4.1-43.9 10.6-1.8 18.6 32.9 25.3 31.3-6.6 2.7-17.9-17.5-21-25-3.1-7.5-6.7-.8-5 4.4 1.7 5.1 10.9 34.3-2.9 36.2-13.8 1.9-18.1-23.4-18.9-25.6-.8-2.2-5.8-5.9-7.9-.2-2.2 5.7-10.5 49.1-18 49.3s-6.6-38-.9-49.3"></path><path fill="#1b2c49" d="M2190.7 3584.5c22.3-16.1 19.3-47 6.2-73.9-17.4-35.9-90.9-60.8-90.9-60.8-13.2-18.8 10.7-41.9 10.7-41.9l-52.5-34.7s-51.1 45.1-68.4 80.6c44.2 67.4 116.6 124 194.9 130.7"></path><path fill="#aecff1" d="M1995.9 3453.8c-5.3 11-6.3 21.1.4 28.9 28.4 33.1 107.9 117.9 162.8 112.3 13.8-1.4 24.1-5.2 31.6-10.6-78.3-6.6-150.7-63.2-194.8-130.6"></path><path fill="#e65e75" d="M2155.3 3451.2s-47.9 29.2-33.3 25.5c14.6-3.7 46.5-19 54.5-11.4 8 7.7-24.9 29.4-14.8 36.2s31.3-28.9 38.7-21.1c7.4 7.8-16.9 33.8-11.8 38.4-5.9-3.9 4.5-24.6 9-31.4 4.5-6.8-3.1-6-6.4-1.7-3.3 4.3-22.3 28.2-31.6 17.8-9.3-10.4 9.3-28.1 10.7-30 1.4-1.9 1.7-8.1-4.3-6.7-6 1.4-46.6 18.7-50.9 12.6-4.5-5.9 27.6-26.6 40.2-28.2"></path><path fill="#9374a3" d="M2267.2 2482.2c6 6.7 15 8.8 23.6 9.1 11.5.5 23.1-.7 34.5-1.7 24.2-2.1 48.5-4.8 72.8-2.9 3.2.3 3.2-4.7 0-4.9-23.1-1.8-46.3.5-69.3 2.6-11.1 1-22.4 2-33.5 2.1-8.7.1-18.4-.8-24.6-7.8-2.1-2.4-5.6 1.1-3.5 3.5"></path><path fill="#fcfcfc" d="M2446.2 1866.7c4.2 9 11.9 15.6 19.9 21.2 8.5 6 17.8 10.8 27.5 14.4 9.6 3.6 19.6 5.9 29.8 7 9.8 1 21.1 1.9 30.1-2.8 8.8-4.6 14.3-13.6 17.5-22.7.5-1.5-1.9-2.2-2.4-.7-2.8 8.1-7.7 16.1-15.3 20.6-8.4 4.9-19.2 4.1-28.5 3.3-19.3-1.8-38-8.4-54.2-18.9-8.9-5.8-17.8-12.7-22.4-22.6-.6-1.5-2.7-.2-2 1.2M2548 1939c9.6 0 9.6-14.8 0-14.8-9.6-.1-9.6 14.8 0 14.8M2558.6 1968.1c9.6 0 9.6-14.8 0-14.8s-9.6 14.8 0 14.8M2567.4 1995.4c9.6 0 9.6-14.8 0-14.8s-9.6 14.8 0 14.8"></path><defs><path id="aL" d="M2358.9 1977.5s-101 500.2 218.6 245.8c74.5-63.5 107.4-104.5 117.2-135.2 9.8-30.7 7.3-49.8-20.4-63.9-27.7-14.1-13 56-18.6 60.3-18-27.1-25.7-19-18 13.8 4.7 20.1-214.3 207.1-149.7-95.6 13.1-61.6-16.7-72.6-42.2-80.9-2.8-.9-6-1.3-9.4-1.3-27.8 0-72.6 28.2-77.5 57"></path></defs><clipPath id="aM"><use overflow="visible" xlink:href="#aL"></use></clipPath><linearGradient id="aN" x1="1831.913" x2="1836.694" y1="2775.89" y2="2775.89" gradientTransform="scale(-142.516 142.516) rotate(65.974 3034.727 -30.505)" gradientUnits="userSpaceOnUse"><stop offset="0" stop-color="#ffc7d0"></stop><stop offset="1" stop-color="#e65e75"></stop></linearGradient><path fill="url(#aN)" d="m2911.6 2012.9-281.2 630.8-579.7-258.4 281.2-630.8z" clip-path="url(#aM)"></path><path fill="#ffc261" d="M2500.4 1984.6c4.7-77-55-81-115.2-60.1-7.8 9.4-14.1 21.1-18.7 34.2-14.7 47-6.8 94.1-2.9 142l126.1-10s5.8-26.2 10.7-106.1"></path><path fill="#f45100" d="M2366.5 1958.7c4.6-13.1 11-24.8 18.7-34.2-2.3.8-4.6 1.6-6.9 2.5-62.4 23.6-50.3 176.6-50.3 176.6l35.5-2.8c-3.8-48-11.7-95 3-142.1"></path><path fill="#ff7116" d="M2342.3 1999.6c1.5-6.8 1.1-13.9 2.3-20.7 1-5.8 3.3-11.3 6.2-16.4 6.1-10.3 14.7-18.8 23.3-27.1 2.3-2.2-1.2-5.7-3.5-3.5-8.9 8.5-17.8 17.4-24.1 28.1-2.9 5-5.3 10.5-6.5 16.2-1.5 7.3-1 14.8-2.6 22.1-.6 3.1 4.2 4.4 4.9 1.3"></path><path fill="#fcfcfc" d="M2330.6 2067.7c-.2 6.1-.7 12.2-.6 18.3.1 4 2 6.6 6 7.2 2 .3 4 .1 6 0 3.1-.2 6.3-.1 9.4.1 6.1.3 12.2 1.1 18.3 1.6 5.9.5 11.8.8 17.6.1 5.8-.6 11.3-2.4 17-3.4 12.2-2 24.9-.9 37.3-1.3 13.2-.5 26.5-1.9 39.2-5.7 1.5-.5.9-2.8-.7-2.4-21.6 6.5-43.7 5.1-66 6-11.4.5-22.1 4.5-33.4 4.7-10.9.1-21.7-2-32.7-2.2-2.8-.1-5.6.1-8.3.2-3.2.1-6.7 0-7.2-3.9-.3-2.8.1-6 .2-8.8l.3-10.4c.1-1.7-2.3-1.7-2.4-.1M2405.9 2612.5c34.6-1.8 68.5-18.8 89.8-46.4 6.2-8 11.1-17.1 11.7-27.4.1-1.6-2.4-1.6-2.5 0-1 17.4-14.9 32.2-27.6 42.9-12.7 10.7-27.6 18.7-43.5 23.5-9.1 2.7-18.5 4.3-27.9 4.8-1.6.2-1.6 2.7 0 2.6M2585.5 2489.9c-3.8 34.2-9.9 68-16.9 101.7-6.9 33.3-14.1 66.6-22 99.6-4.4 18.4-9.8 36.5-16.5 54.2-.6 1.5 1.8 2.1 2.4.7 12.2-31.9 19.1-65.2 26.5-98.4 7.4-33.5 14.9-67 20.8-100.8 3.3-18.9 6.1-37.9 8.3-57 .1-1.6-2.4-1.6-2.6 0M2525.5 2766.1c-20.4 51.8-40.9 103.8-68.6 152.3-7.8 13.7-16.2 27.1-25.3 40.1-.9 1.3 1.2 2.5 2.1 1.2 32.1-45.9 55.5-97 76.5-148.7 6-14.7 11.8-29.4 17.6-44.2.7-1.5-1.7-2.2-2.3-.7M2422 2976.1c-7.1 8.5-10.3 19-15 28.8-5.4 11.1-13.4 20.4-21.5 29.5-1 1.2.7 2.9 1.8 1.7 7.8-8.8 15.6-17.8 21-28.3 5.1-10 8.2-21.2 15.5-30 .9-1.2-.8-3-1.8-1.7M2376.2 3045.1c-4.5 7.9-9.7 15.2-15.5 22.1-5.5 6.6-11.4 13-16.6 19.8-9.8 12.8-15.9 28.4-27.8 39.6-1.2 1.1.6 2.8 1.7 1.7 11.8-11.1 17.9-26.4 27.6-39.2 5.5-7.3 11.7-14 17.5-21 5.7-6.8 10.8-14 15.2-21.8.8-1.3-1.3-2.6-2.1-1.2M2311.3 3140.9c-7.1 7.3-14.3 14.5-21.4 21.8-6.6 6.7-14.1 13.2-19.5 21-5.1 7.3-8.3 15.9-13 23.5-5 8-10.8 15.3-17 22.3-6.8 7.6-14 14.9-21.3 22.1-1.1 1.1.6 2.9 1.7 1.7 12.6-12.5 25.2-25.1 35.3-39.7 5.1-7.4 8.9-15.5 13.2-23.4 4.9-8.9 12.4-15.7 19.4-22.8 8.1-8.2 16.2-16.5 24.3-24.7 1.2-1.2-.6-3-1.7-1.8M2138.8 3356.5c2.3-9.5 11.3-16.4 17.7-23.3 7-7.4 13.7-15 20.3-22.7 13.1-15.4 25.5-31.5 37-48.1.9-1.3-1.2-2.5-2.1-1.2-12.1 17.3-25 34.1-38.8 50.1-6.7 7.8-13.7 15.5-20.8 23-6.1 6.4-13.5 12.6-15.7 21.6-.4 1.5 2 2.2 2.4.6M2396.6 2511.4c-1.6 5.4-1.9 11.1-.9 16.7.3 1.6 2.7.9 2.4-.7-.9-5.1-.6-10.4.9-15.4.5-1.4-1.9-2.1-2.4-.6M2393.8 2544.3c-1.7 6.1-2.6 12.5-2.8 18.8-.1 1.6 2.4 1.6 2.5 0 .2-6.2 1.1-12.2 2.7-18.2.4-1.5-2-2.1-2.4-.6M2390.2 2583.4v16.8c0 1.6 2.5 1.6 2.5 0v-16.8c-.1-1.6-2.5-1.6-2.5 0M2393 2614c-.8 5.4-1.6 10.9-2.4 16.3-.1.7.2 1.3.9 1.5.6.2 1.4-.2 1.5-.9.8-5.4 1.6-10.9 2.4-16.3.1-.7-.2-1.3-.9-1.5-.6-.2-1.4.2-1.5.9M2391.1 2643.4c-.1 5.3-.3 10.6-.4 15.9 0 1.6 2.4 1.6 2.5 0 .1-5.3.3-10.6.4-15.9 0-1.6-2.4-1.6-2.5 0M2388.8 2672.9v11c0 1.6 2.5 1.6 2.5 0v-11c0-1.5-2.5-1.5-2.5 0M2385.5 2698.5c.3 5.1.2 10.3-.4 15.4-.1.7.6 1.2 1.2 1.2.7 0 1.2-.6 1.2-1.2.6-5.1.7-10.3.4-15.4 0-1.6-2.5-1.6-2.4 0M2383.4 2729c-1.5 5.6-2.5 11.4-2.9 17.2-.1 1.6 2.4 1.6 2.5 0 .4-5.6 1.3-11.1 2.8-16.5.4-1.6-2-2.2-2.4-.7M2378.2 2759.6c-2.2 6.3-4.4 12.6-6.5 18.8-.5 1.5 1.9 2.2 2.4.7 2.2-6.3 4.4-12.6 6.5-18.8.5-1.5-1.9-2.2-2.4-.7"></path></svg>